<?xml version="1.0" encoding="UTF-8"?><svg id="_レイヤー_1" xmlns="http://www.w3.org/2000/svg" viewBox="0 0 32.35886 32.35719"><defs><style>.cls-1{fill:#851218;}</style></defs><path class="cls-1" d="m16.17942,0C7.24377,0,0,7.24378,0,16.17944c0,8.89068,7.17127,16.1053,16.04484,16.17775v-11.02445h-4.50809v-4.49987h4.50809v-1.89946c-.02965-.62962-.04174-3.38668,1.82979-5.39883.83816-.90122,2.37647-1.97547,4.94487-1.97547h2.41113v4.49989h-2.41113c-1.13733,0-1.51554.39852-1.63988.52944-.57455.60539-.65641,1.75388-.64,2.12884l.00872.09459-.00364.05952v1.96148h4.68593v4.49987h-4.68593v10.42972c6.81502-1.90519,11.81417-8.16,11.81417-15.58301C32.35886,7.24378,25.11508,0,16.17942,0Z"/></svg>