<?xml version="1.0" encoding="UTF-8"?><svg id="_レイヤー_1" xmlns="http://www.w3.org/2000/svg" viewBox="0 0 32.21567 32.21567"><defs><style>.cls-1{fill:#851218;}</style></defs><path class="cls-1" d="m16.10784,0C7.21172,0,0,7.21173,0,16.10784s7.21172,16.10784,16.10784,16.10784,16.10784-7.21172,16.10784-16.10784S25.00396,0,16.10784,0Zm10.09525,19.73547c0,1.18712-.91204,2.25984-2.02673,2.38378,0,0-3.75384.50148-8.57137.50148s-8.24227-.4928-8.24227-.4928c-1.11422-.12874-2.02586-1.20534-2.02586-2.39246v-6.86063c0-1.18711.91149-2.2651,2.02553-2.39548l.00032-.0019s3.42473-.4928,8.24227-.4928,8.57137.50148,8.57137.50148l-.00026.00771c1.11485.12241,2.027,1.19388,2.027,2.38099v6.86063Z"/><polygon class="cls-1" points="13.93178 19.2263 19.33487 16.30002 13.93178 13.37375 13.93178 19.2263"/></svg>