<?xml version="1.0" encoding="UTF-8"?><svg id="_レイヤー_1" xmlns="http://www.w3.org/2000/svg" viewBox="0 0 32.49816 32.49815"><defs><style>.cls-1{fill:#851218;}</style></defs><path class="cls-1" d="m21.42013,7.6766h-10.0673c-2.06736,0-3.74925,1.6819-3.74925,3.74922v10.06741c0,2.06728,1.68189,3.74918,3.74925,3.74918h10.0673c2.06736,0,3.74925-1.6819,3.74925-3.74918v-10.06741c0-2.06732-1.68189-3.74922-3.74925-3.74922Zm-5.03359,13.7458c-2.73656,0-4.96287-2.22634-4.96287-4.96291s2.22631-4.96287,4.96287-4.96287,4.9629,2.22638,4.9629,4.96287-2.2263,4.96291-4.9629,4.96291Zm5.44693-9.19373c-.69923,0-1.26607-.56687-1.26607-1.26607,0-.69924.56685-1.2661,1.26607-1.2661s1.26607.56686,1.26607,1.2661c0,.6992-.56683,1.26607-1.26607,1.26607Z"/><path class="cls-1" d="m16.38653,13.10261c-1.85101,0-3.35689,1.50587-3.35689,3.35688s1.50588,3.357,3.35689,3.357,3.35691-1.50595,3.35691-3.357-1.50587-3.35688-3.35691-3.35688Z"/><path class="cls-1" d="m16.24909,0C7.27497,0,0,7.27494,0,16.24907s7.27497,16.24907,16.24909,16.24907,16.24907-7.27498,16.24907-16.24907S25.22321,0,16.24909,0Zm10.52628,21.49323c0,2.95284-2.40233,5.35517-5.35524,5.35517h-10.0673c-2.95293,0-5.35524-2.40233-5.35524-5.35517v-10.06741c0-2.95284,2.40232-5.35522,5.35524-5.35522h10.0673c2.95291,0,5.35524,2.40237,5.35524,5.35522v10.06741Z"/></svg>