<?xml version="1.0" encoding="UTF-8"?><svg id="_レイヤー_1" xmlns="http://www.w3.org/2000/svg" viewBox="0 0 32.6284 32.62842"><defs><style>.cls-1{fill:#851218;}</style></defs><path class="cls-1" d="m16.31418,0C7.3041,0,0,7.30416,0,16.31419s7.3041,16.31423,16.31418,16.31423,16.31422-7.3041,16.31422-16.31423S25.32427,0,16.31418,0Zm6.52263,23.31173c-.52406.78607-2.09623,1.34759-2.6203,1.34759s-2.77006.26204-2.77006-1.98395,1.5722-2.50805,1.5722-2.50805c0,0,1.16043-.26204,2.20854-.48661,1.04813-.22462.78968-1.34341.78968-1.34341l-.0223-1.2769v-5.12835c0-.52409-.41176-.48667-.41176-.48667,0,0-7.74866,1.53481-8.23529,1.64707-.48664.11231-.37433.86098-.37433.86098l.03742,9.13366s.11231,1.49732-.41175,2.28341c-.52407.78613-2.09626,1.3476-2.62033,1.3476s-2.77006.26203-2.77006-1.98396,1.5722-2.50799,1.5722-2.50799c0,0,1.16044-.26204,2.20854-.48661,1.04813-.22462.78968-1.34341.78968-1.34341v-10.61419c-.03382-1.32654.81996-1.44347.81996-1.44347,0,0,8.42244-1.49734,9.50801-1.72195,1.08555-.22458,1.10425.74865,1.10425.74865l.03745,13.66311s.1123,1.49732-.41177,2.28342Z"/></svg>