<?xml version="1.0" encoding="UTF-8"?><svg id="_レイヤー_1" xmlns="http://www.w3.org/2000/svg" viewBox="0 0 32.6284 32.62838"><defs><style>.cls-1{fill:#851218;}</style></defs><path class="cls-1" d="m16.31419,0C7.30411,0,0,7.3041,0,16.31419s7.30411,16.31419,16.31419,16.31419,16.3142-7.3041,16.3142-16.31419S25.32427,0,16.31419,0Zm-.91992,25.74483c-3.34182.37938-5.83024-.75406-7.62795-1.77091,0,0,3.56885.32225,5.90745-1.04189-3.75026-.81904-4.05199-4.31066-4.05199-4.31066,1.1639.55422,2.69263.5151,2.69263.5151-3.76886-1.05308-3.46856-4.82575-3.46856-4.82575.66511,1.1639,2.52636,1.44487,2.52636,1.44487-4.21225-2.60493-2.52961-7.26552-2.52961-7.26552,2.05439,3.15496,5.63377,5.01898,7.7237,5.14564,0,0-.20089-3.3828,2.61518-3.91918,2.81606-.5364,4.16402,1.35938,4.16402,1.35938l2.50841-.61827-2.01148,1.60917,2.41377-.26818-1.87737,1.34095s.81908,11.4922-8.98455,12.60525Z"/></svg>